<?xml version="1.0" encoding="utf-8" standalone="no"?>
<!DOCTYPE svg PUBLIC "-//W3C//DTD SVG 1.1//EN"
  "http://www.w3.org/Graphics/SVG/1.1/DTD/svg11.dtd">
<svg xmlns:xlink="http://www.w3.org/1999/xlink" width="648pt" height="273.6pt" viewBox="0 0 648 273.6" xmlns="http://www.w3.org/2000/svg" version="1.1">
 <metadata>
  <rdf:RDF xmlns:dc="http://purl.org/dc/elements/1.1/" xmlns:cc="http://creativecommons.org/ns#" xmlns:rdf="http://www.w3.org/1999/02/22-rdf-syntax-ns#">
   <cc:Work>
    <dc:type rdf:resource="http://purl.org/dc/dcmitype/StillImage"/>
    <dc:date>2026-02-16T00:34:45.888643</dc:date>
    <dc:format>image/svg+xml</dc:format>
    <dc:creator>
     <cc:Agent>
      <dc:title>Matplotlib v3.9.0, https://matplotlib.org/</dc:title>
     </cc:Agent>
    </dc:creator>
   </cc:Work>
  </rdf:RDF>
 </metadata>
 <defs>
  <style type="text/css">*{stroke-linejoin: round; stroke-linecap: butt}</style>
 </defs>
 <g id="figure_1">
  <g id="patch_1">
   <path d="M 0 273.6 
L 648 273.6 
L 648 0 
L 0 0 
L 0 273.6 
z
" style="fill: none"/>
  </g>
  <g id="axes_1">
   <g id="patch_2">
    <path d="M 46.78 249.22 
L 637.2 249.22 
L 637.2 12.852479 
L 46.78 12.852479 
L 46.78 249.22 
z
" style="fill: none"/>
   </g>
   <g id="matplotlib.axis_1">
    <g id="xtick_1">
     <g id="line2d_1"/>
     <g id="text_1">
      <!-- .zt -->
      <g style="fill: #334155" transform="translate(96.198056 260.318437) scale(0.1 -0.1)">
       <defs>
        <path id="DejaVuSans-2e" d="M 684 794 
L 1344 794 
L 1344 0 
L 684 0 
L 684 794 
z
" transform="scale(0.015625)"/>
        <path id="DejaVuSans-7a" d="M 353 3500 
L 3084 3500 
L 3084 2975 
L 922 459 
L 3084 459 
L 3084 0 
L 275 0 
L 275 525 
L 2438 3041 
L 353 3041 
L 353 3500 
z
" transform="scale(0.015625)"/>
        <path id="DejaVuSans-74" d="M 1172 4494 
L 1172 3500 
L 2356 3500 
L 2356 3053 
L 1172 3053 
L 1172 1153 
Q 1172 725 1289 603 
Q 1406 481 1766 481 
L 2356 481 
L 2356 0 
L 1766 0 
Q 1100 0 847 248 
Q 594 497 594 1153 
L 594 3053 
L 172 3053 
L 172 3500 
L 594 3500 
L 594 4494 
L 1172 4494 
z
" transform="scale(0.015625)"/>
       </defs>
       <use xlink:href="#DejaVuSans-2e"/>
       <use xlink:href="#DejaVuSans-7a" x="31.787109"/>
       <use xlink:href="#DejaVuSans-74" x="84.277344"/>
      </g>
     </g>
    </g>
    <g id="xtick_2">
     <g id="line2d_2"/>
     <g id="text_2">
      <!-- .safetensors -->
      <g style="fill: #334155" transform="translate(151.62011 260.318437) scale(0.1 -0.1)">
       <defs>
        <path id="DejaVuSans-73" d="M 2834 3397 
L 2834 2853 
Q 2591 2978 2328 3040 
Q 2066 3103 1784 3103 
Q 1356 3103 1142 2972 
Q 928 2841 928 2578 
Q 928 2378 1081 2264 
Q 1234 2150 1697 2047 
L 1894 2003 
Q 2506 1872 2764 1633 
Q 3022 1394 3022 966 
Q 3022 478 2636 193 
Q 2250 -91 1575 -91 
Q 1294 -91 989 -36 
Q 684 19 347 128 
L 347 722 
Q 666 556 975 473 
Q 1284 391 1588 391 
Q 1994 391 2212 530 
Q 2431 669 2431 922 
Q 2431 1156 2273 1281 
Q 2116 1406 1581 1522 
L 1381 1569 
Q 847 1681 609 1914 
Q 372 2147 372 2553 
Q 372 3047 722 3315 
Q 1072 3584 1716 3584 
Q 2034 3584 2315 3537 
Q 2597 3491 2834 3397 
z
" transform="scale(0.015625)"/>
        <path id="DejaVuSans-61" d="M 2194 1759 
Q 1497 1759 1228 1600 
Q 959 1441 959 1056 
Q 959 750 1161 570 
Q 1363 391 1709 391 
Q 2188 391 2477 730 
Q 2766 1069 2766 1631 
L 2766 1759 
L 2194 1759 
z
M 3341 1997 
L 3341 0 
L 2766 0 
L 2766 531 
Q 2569 213 2275 61 
Q 1981 -91 1556 -91 
Q 1019 -91 701 211 
Q 384 513 384 1019 
Q 384 1609 779 1909 
Q 1175 2209 1959 2209 
L 2766 2209 
L 2766 2266 
Q 2766 2663 2505 2880 
Q 2244 3097 1772 3097 
Q 1472 3097 1187 3025 
Q 903 2953 641 2809 
L 641 3341 
Q 956 3463 1253 3523 
Q 1550 3584 1831 3584 
Q 2591 3584 2966 3190 
Q 3341 2797 3341 1997 
z
" transform="scale(0.015625)"/>
        <path id="DejaVuSans-66" d="M 2375 4863 
L 2375 4384 
L 1825 4384 
Q 1516 4384 1395 4259 
Q 1275 4134 1275 3809 
L 1275 3500 
L 2222 3500 
L 2222 3053 
L 1275 3053 
L 1275 0 
L 697 0 
L 697 3053 
L 147 3053 
L 147 3500 
L 697 3500 
L 697 3744 
Q 697 4328 969 4595 
Q 1241 4863 1831 4863 
L 2375 4863 
z
" transform="scale(0.015625)"/>
        <path id="DejaVuSans-65" d="M 3597 1894 
L 3597 1613 
L 953 1613 
Q 991 1019 1311 708 
Q 1631 397 2203 397 
Q 2534 397 2845 478 
Q 3156 559 3463 722 
L 3463 178 
Q 3153 47 2828 -22 
Q 2503 -91 2169 -91 
Q 1331 -91 842 396 
Q 353 884 353 1716 
Q 353 2575 817 3079 
Q 1281 3584 2069 3584 
Q 2775 3584 3186 3129 
Q 3597 2675 3597 1894 
z
M 3022 2063 
Q 3016 2534 2758 2815 
Q 2500 3097 2075 3097 
Q 1594 3097 1305 2825 
Q 1016 2553 972 2059 
L 3022 2063 
z
" transform="scale(0.015625)"/>
        <path id="DejaVuSans-6e" d="M 3513 2113 
L 3513 0 
L 2938 0 
L 2938 2094 
Q 2938 2591 2744 2837 
Q 2550 3084 2163 3084 
Q 1697 3084 1428 2787 
Q 1159 2491 1159 1978 
L 1159 0 
L 581 0 
L 581 3500 
L 1159 3500 
L 1159 2956 
Q 1366 3272 1645 3428 
Q 1925 3584 2291 3584 
Q 2894 3584 3203 3211 
Q 3513 2838 3513 2113 
z
" transform="scale(0.015625)"/>
        <path id="DejaVuSans-6f" d="M 1959 3097 
Q 1497 3097 1228 2736 
Q 959 2375 959 1747 
Q 959 1119 1226 758 
Q 1494 397 1959 397 
Q 2419 397 2687 759 
Q 2956 1122 2956 1747 
Q 2956 2369 2687 2733 
Q 2419 3097 1959 3097 
z
M 1959 3584 
Q 2709 3584 3137 3096 
Q 3566 2609 3566 1747 
Q 3566 888 3137 398 
Q 2709 -91 1959 -91 
Q 1206 -91 779 398 
Q 353 888 353 1747 
Q 353 2609 779 3096 
Q 1206 3584 1959 3584 
z
" transform="scale(0.015625)"/>
        <path id="DejaVuSans-72" d="M 2631 2963 
Q 2534 3019 2420 3045 
Q 2306 3072 2169 3072 
Q 1681 3072 1420 2755 
Q 1159 2438 1159 1844 
L 1159 0 
L 581 0 
L 581 3500 
L 1159 3500 
L 1159 2956 
Q 1341 3275 1631 3429 
Q 1922 3584 2338 3584 
Q 2397 3584 2469 3576 
Q 2541 3569 2628 3553 
L 2631 2963 
z
" transform="scale(0.015625)"/>
       </defs>
       <use xlink:href="#DejaVuSans-2e"/>
       <use xlink:href="#DejaVuSans-73" x="31.787109"/>
       <use xlink:href="#DejaVuSans-61" x="83.886719"/>
       <use xlink:href="#DejaVuSans-66" x="145.166016"/>
       <use xlink:href="#DejaVuSans-65" x="180.371094"/>
       <use xlink:href="#DejaVuSans-74" x="241.894531"/>
       <use xlink:href="#DejaVuSans-65" x="281.103516"/>
       <use xlink:href="#DejaVuSans-6e" x="342.626953"/>
       <use xlink:href="#DejaVuSans-73" x="406.005859"/>
       <use xlink:href="#DejaVuSans-6f" x="458.105469"/>
       <use xlink:href="#DejaVuSans-72" x="519.287109"/>
       <use xlink:href="#DejaVuSans-73" x="560.400391"/>
      </g>
     </g>
    </g>
    <g id="xtick_3">
     <g id="line2d_3"/>
     <g id="text_3">
      <!-- .pt -->
      <g style="fill: #334155" transform="translate(255.393727 260.318437) scale(0.1 -0.1)">
       <defs>
        <path id="DejaVuSans-70" d="M 1159 525 
L 1159 -1331 
L 581 -1331 
L 581 3500 
L 1159 3500 
L 1159 2969 
Q 1341 3281 1617 3432 
Q 1894 3584 2278 3584 
Q 2916 3584 3314 3078 
Q 3713 2572 3713 1747 
Q 3713 922 3314 415 
Q 2916 -91 2278 -91 
Q 1894 -91 1617 61 
Q 1341 213 1159 525 
z
M 3116 1747 
Q 3116 2381 2855 2742 
Q 2594 3103 2138 3103 
Q 1681 3103 1420 2742 
Q 1159 2381 1159 1747 
Q 1159 1113 1420 752 
Q 1681 391 2138 391 
Q 2594 391 2855 752 
Q 3116 1113 3116 1747 
z
" transform="scale(0.015625)"/>
       </defs>
       <use xlink:href="#DejaVuSans-2e"/>
       <use xlink:href="#DejaVuSans-70" x="31.787109"/>
       <use xlink:href="#DejaVuSans-74" x="95.263672"/>
      </g>
     </g>
    </g>
    <g id="xtick_4">
     <g id="line2d_4"/>
     <g id="text_4">
      <!-- .npz -->
      <g style="fill: #334155" transform="translate(331.43375 260.318437) scale(0.1 -0.1)">
       <use xlink:href="#DejaVuSans-2e"/>
       <use xlink:href="#DejaVuSans-6e" x="31.787109"/>
       <use xlink:href="#DejaVuSans-70" x="95.166016"/>
       <use xlink:href="#DejaVuSans-7a" x="158.642578"/>
      </g>
     </g>
    </g>
    <g id="xtick_5">
     <g id="line2d_5"/>
     <g id="text_5">
      <!-- .gguf -->
      <g style="fill: #334155" transform="translate(408.996429 260.318437) scale(0.1 -0.1)">
       <defs>
        <path id="DejaVuSans-67" d="M 2906 1791 
Q 2906 2416 2648 2759 
Q 2391 3103 1925 3103 
Q 1463 3103 1205 2759 
Q 947 2416 947 1791 
Q 947 1169 1205 825 
Q 1463 481 1925 481 
Q 2391 481 2648 825 
Q 2906 1169 2906 1791 
z
M 3481 434 
Q 3481 -459 3084 -895 
Q 2688 -1331 1869 -1331 
Q 1566 -1331 1297 -1286 
Q 1028 -1241 775 -1147 
L 775 -588 
Q 1028 -725 1275 -790 
Q 1522 -856 1778 -856 
Q 2344 -856 2625 -561 
Q 2906 -266 2906 331 
L 2906 616 
Q 2728 306 2450 153 
Q 2172 0 1784 0 
Q 1141 0 747 490 
Q 353 981 353 1791 
Q 353 2603 747 3093 
Q 1141 3584 1784 3584 
Q 2172 3584 2450 3431 
Q 2728 3278 2906 2969 
L 2906 3500 
L 3481 3500 
L 3481 434 
z
" transform="scale(0.015625)"/>
        <path id="DejaVuSans-75" d="M 544 1381 
L 544 3500 
L 1119 3500 
L 1119 1403 
Q 1119 906 1312 657 
Q 1506 409 1894 409 
Q 2359 409 2629 706 
Q 2900 1003 2900 1516 
L 2900 3500 
L 3475 3500 
L 3475 0 
L 2900 0 
L 2900 538 
Q 2691 219 2414 64 
Q 2138 -91 1772 -91 
Q 1169 -91 856 284 
Q 544 659 544 1381 
z
M 1991 3584 
L 1991 3584 
z
" transform="scale(0.015625)"/>
       </defs>
       <use xlink:href="#DejaVuSans-2e"/>
       <use xlink:href="#DejaVuSans-67" x="31.787109"/>
       <use xlink:href="#DejaVuSans-67" x="95.263672"/>
       <use xlink:href="#DejaVuSans-75" x="158.740234"/>
       <use xlink:href="#DejaVuSans-66" x="222.119141"/>
      </g>
     </g>
    </g>
    <g id="xtick_6">
     <g id="line2d_6"/>
     <g id="text_6">
      <!-- .onnx -->
      <g style="fill: #334155" transform="translate(487.790358 260.318437) scale(0.1 -0.1)">
       <defs>
        <path id="DejaVuSans-78" d="M 3513 3500 
L 2247 1797 
L 3578 0 
L 2900 0 
L 1881 1375 
L 863 0 
L 184 0 
L 1544 1831 
L 300 3500 
L 978 3500 
L 1906 2253 
L 2834 3500 
L 3513 3500 
z
" transform="scale(0.015625)"/>
       </defs>
       <use xlink:href="#DejaVuSans-2e"/>
       <use xlink:href="#DejaVuSans-6f" x="31.787109"/>
       <use xlink:href="#DejaVuSans-6e" x="92.96875"/>
       <use xlink:href="#DejaVuSans-6e" x="156.347656"/>
       <use xlink:href="#DejaVuSans-78" x="219.726562"/>
      </g>
     </g>
    </g>
    <g id="xtick_7">
     <g id="line2d_7"/>
     <g id="text_7">
      <!-- .h5 -->
      <g style="fill: #334155" transform="translate(573.669444 260.318437) scale(0.1 -0.1)">
       <defs>
        <path id="DejaVuSans-68" d="M 3513 2113 
L 3513 0 
L 2938 0 
L 2938 2094 
Q 2938 2591 2744 2837 
Q 2550 3084 2163 3084 
Q 1697 3084 1428 2787 
Q 1159 2491 1159 1978 
L 1159 0 
L 581 0 
L 581 4863 
L 1159 4863 
L 1159 2956 
Q 1366 3272 1645 3428 
Q 1925 3584 2291 3584 
Q 2894 3584 3203 3211 
Q 3513 2838 3513 2113 
z
" transform="scale(0.015625)"/>
        <path id="DejaVuSans-35" d="M 691 4666 
L 3169 4666 
L 3169 4134 
L 1269 4134 
L 1269 2991 
Q 1406 3038 1543 3061 
Q 1681 3084 1819 3084 
Q 2600 3084 3056 2656 
Q 3513 2228 3513 1497 
Q 3513 744 3044 326 
Q 2575 -91 1722 -91 
Q 1428 -91 1123 -41 
Q 819 9 494 109 
L 494 744 
Q 775 591 1075 516 
Q 1375 441 1709 441 
Q 2250 441 2565 725 
Q 2881 1009 2881 1497 
Q 2881 1984 2565 2268 
Q 2250 2553 1709 2553 
Q 1456 2553 1204 2497 
Q 953 2441 691 2322 
L 691 4666 
z
" transform="scale(0.015625)"/>
       </defs>
       <use xlink:href="#DejaVuSans-2e"/>
       <use xlink:href="#DejaVuSans-68" x="31.787109"/>
       <use xlink:href="#DejaVuSans-35" x="95.166016"/>
      </g>
     </g>
    </g>
   </g>
   <g id="matplotlib.axis_2">
    <g id="ytick_1">
     <g id="line2d_8">
      <path d="M 46.78 249.22 
L 637.2 249.22 
" clip-path="url(#p56745a70fe)" style="fill: none; stroke: #f1f5f9; stroke-width: 0.8; stroke-linecap: square"/>
     </g>
     <g id="line2d_9"/>
     <g id="text_8">
      <!-- 0.0 -->
      <g style="fill: #94a3b8" transform="translate(28.967188 252.639297) scale(0.09 -0.09)">
       <defs>
        <path id="DejaVuSans-30" d="M 2034 4250 
Q 1547 4250 1301 3770 
Q 1056 3291 1056 2328 
Q 1056 1369 1301 889 
Q 1547 409 2034 409 
Q 2525 409 2770 889 
Q 3016 1369 3016 2328 
Q 3016 3291 2770 3770 
Q 2525 4250 2034 4250 
z
M 2034 4750 
Q 2819 4750 3233 4129 
Q 3647 3509 3647 2328 
Q 3647 1150 3233 529 
Q 2819 -91 2034 -91 
Q 1250 -91 836 529 
Q 422 1150 422 2328 
Q 422 3509 836 4129 
Q 1250 4750 2034 4750 
z
" transform="scale(0.015625)"/>
       </defs>
       <use xlink:href="#DejaVuSans-30"/>
       <use xlink:href="#DejaVuSans-2e" x="63.623047"/>
       <use xlink:href="#DejaVuSans-30" x="95.410156"/>
      </g>
     </g>
    </g>
    <g id="ytick_2">
     <g id="line2d_10">
      <path d="M 46.78 202.29375 
L 637.2 202.29375 
" clip-path="url(#p56745a70fe)" style="fill: none; stroke: #f1f5f9; stroke-width: 0.8; stroke-linecap: square"/>
     </g>
     <g id="line2d_11"/>
     <g id="text_9">
      <!-- 0.5 -->
      <g style="fill: #94a3b8" transform="translate(28.967188 205.713047) scale(0.09 -0.09)">
       <use xlink:href="#DejaVuSans-30"/>
       <use xlink:href="#DejaVuSans-2e" x="63.623047"/>
       <use xlink:href="#DejaVuSans-35" x="95.410156"/>
      </g>
     </g>
    </g>
    <g id="ytick_3">
     <g id="line2d_12">
      <path d="M 46.78 155.3675 
L 637.2 155.3675 
" clip-path="url(#p56745a70fe)" style="fill: none; stroke: #f1f5f9; stroke-width: 0.8; stroke-linecap: square"/>
     </g>
     <g id="line2d_13"/>
     <g id="text_10">
      <!-- 1.0 -->
      <g style="fill: #94a3b8" transform="translate(28.967188 158.786797) scale(0.09 -0.09)">
       <defs>
        <path id="DejaVuSans-31" d="M 794 531 
L 1825 531 
L 1825 4091 
L 703 3866 
L 703 4441 
L 1819 4666 
L 2450 4666 
L 2450 531 
L 3481 531 
L 3481 0 
L 794 0 
L 794 531 
z
" transform="scale(0.015625)"/>
       </defs>
       <use xlink:href="#DejaVuSans-31"/>
       <use xlink:href="#DejaVuSans-2e" x="63.623047"/>
       <use xlink:href="#DejaVuSans-30" x="95.410156"/>
      </g>
     </g>
    </g>
    <g id="ytick_4">
     <g id="line2d_14">
      <path d="M 46.78 108.44125 
L 637.2 108.44125 
" clip-path="url(#p56745a70fe)" style="fill: none; stroke: #f1f5f9; stroke-width: 0.8; stroke-linecap: square"/>
     </g>
     <g id="line2d_15"/>
     <g id="text_11">
      <!-- 1.5 -->
      <g style="fill: #94a3b8" transform="translate(28.967188 111.860547) scale(0.09 -0.09)">
       <use xlink:href="#DejaVuSans-31"/>
       <use xlink:href="#DejaVuSans-2e" x="63.623047"/>
       <use xlink:href="#DejaVuSans-35" x="95.410156"/>
      </g>
     </g>
    </g>
    <g id="ytick_5">
     <g id="line2d_16">
      <path d="M 46.78 61.515 
L 637.2 61.515 
" clip-path="url(#p56745a70fe)" style="fill: none; stroke: #f1f5f9; stroke-width: 0.8; stroke-linecap: square"/>
     </g>
     <g id="line2d_17"/>
     <g id="text_12">
      <!-- 2.0 -->
      <g style="fill: #94a3b8" transform="translate(28.967188 64.934297) scale(0.09 -0.09)">
       <defs>
        <path id="DejaVuSans-32" d="M 1228 531 
L 3431 531 
L 3431 0 
L 469 0 
L 469 531 
Q 828 903 1448 1529 
Q 2069 2156 2228 2338 
Q 2531 2678 2651 2914 
Q 2772 3150 2772 3378 
Q 2772 3750 2511 3984 
Q 2250 4219 1831 4219 
Q 1534 4219 1204 4116 
Q 875 4013 500 3803 
L 500 4441 
Q 881 4594 1212 4672 
Q 1544 4750 1819 4750 
Q 2544 4750 2975 4387 
Q 3406 4025 3406 3419 
Q 3406 3131 3298 2873 
Q 3191 2616 2906 2266 
Q 2828 2175 2409 1742 
Q 1991 1309 1228 531 
z
" transform="scale(0.015625)"/>
       </defs>
       <use xlink:href="#DejaVuSans-32"/>
       <use xlink:href="#DejaVuSans-2e" x="63.623047"/>
       <use xlink:href="#DejaVuSans-30" x="95.410156"/>
      </g>
     </g>
    </g>
    <g id="ytick_6">
     <g id="line2d_18">
      <path d="M 46.78 14.58875 
L 637.2 14.58875 
" clip-path="url(#p56745a70fe)" style="fill: none; stroke: #f1f5f9; stroke-width: 0.8; stroke-linecap: square"/>
     </g>
     <g id="line2d_19"/>
     <g id="text_13">
      <!-- 2.5 -->
      <g style="fill: #94a3b8" transform="translate(28.967188 18.008047) scale(0.09 -0.09)">
       <use xlink:href="#DejaVuSans-32"/>
       <use xlink:href="#DejaVuSans-2e" x="63.623047"/>
       <use xlink:href="#DejaVuSans-35" x="95.410156"/>
      </g>
     </g>
    </g>
    <g id="text_14">
     <!-- Read Throughput (GB/s) -->
     <g style="fill: #334155" transform="translate(18.8875 191.313583) rotate(-90) scale(0.1 -0.1)">
      <defs>
       <path id="DejaVuSans-52" d="M 2841 2188 
Q 3044 2119 3236 1894 
Q 3428 1669 3622 1275 
L 4263 0 
L 3584 0 
L 2988 1197 
Q 2756 1666 2539 1819 
Q 2322 1972 1947 1972 
L 1259 1972 
L 1259 0 
L 628 0 
L 628 4666 
L 2053 4666 
Q 2853 4666 3247 4331 
Q 3641 3997 3641 3322 
Q 3641 2881 3436 2590 
Q 3231 2300 2841 2188 
z
M 1259 4147 
L 1259 2491 
L 2053 2491 
Q 2509 2491 2742 2702 
Q 2975 2913 2975 3322 
Q 2975 3731 2742 3939 
Q 2509 4147 2053 4147 
L 1259 4147 
z
" transform="scale(0.015625)"/>
       <path id="DejaVuSans-64" d="M 2906 2969 
L 2906 4863 
L 3481 4863 
L 3481 0 
L 2906 0 
L 2906 525 
Q 2725 213 2448 61 
Q 2172 -91 1784 -91 
Q 1150 -91 751 415 
Q 353 922 353 1747 
Q 353 2572 751 3078 
Q 1150 3584 1784 3584 
Q 2172 3584 2448 3432 
Q 2725 3281 2906 2969 
z
M 947 1747 
Q 947 1113 1208 752 
Q 1469 391 1925 391 
Q 2381 391 2643 752 
Q 2906 1113 2906 1747 
Q 2906 2381 2643 2742 
Q 2381 3103 1925 3103 
Q 1469 3103 1208 2742 
Q 947 2381 947 1747 
z
" transform="scale(0.015625)"/>
       <path id="DejaVuSans-20" transform="scale(0.015625)"/>
       <path id="DejaVuSans-54" d="M -19 4666 
L 3928 4666 
L 3928 4134 
L 2272 4134 
L 2272 0 
L 1638 0 
L 1638 4134 
L -19 4134 
L -19 4666 
z
" transform="scale(0.015625)"/>
       <path id="DejaVuSans-28" d="M 1984 4856 
Q 1566 4138 1362 3434 
Q 1159 2731 1159 2009 
Q 1159 1288 1364 580 
Q 1569 -128 1984 -844 
L 1484 -844 
Q 1016 -109 783 600 
Q 550 1309 550 2009 
Q 550 2706 781 3412 
Q 1013 4119 1484 4856 
L 1984 4856 
z
" transform="scale(0.015625)"/>
       <path id="DejaVuSans-47" d="M 3809 666 
L 3809 1919 
L 2778 1919 
L 2778 2438 
L 4434 2438 
L 4434 434 
Q 4069 175 3628 42 
Q 3188 -91 2688 -91 
Q 1594 -91 976 548 
Q 359 1188 359 2328 
Q 359 3472 976 4111 
Q 1594 4750 2688 4750 
Q 3144 4750 3555 4637 
Q 3966 4525 4313 4306 
L 4313 3634 
Q 3963 3931 3569 4081 
Q 3175 4231 2741 4231 
Q 1884 4231 1454 3753 
Q 1025 3275 1025 2328 
Q 1025 1384 1454 906 
Q 1884 428 2741 428 
Q 3075 428 3337 486 
Q 3600 544 3809 666 
z
" transform="scale(0.015625)"/>
       <path id="DejaVuSans-42" d="M 1259 2228 
L 1259 519 
L 2272 519 
Q 2781 519 3026 730 
Q 3272 941 3272 1375 
Q 3272 1813 3026 2020 
Q 2781 2228 2272 2228 
L 1259 2228 
z
M 1259 4147 
L 1259 2741 
L 2194 2741 
Q 2656 2741 2882 2914 
Q 3109 3088 3109 3444 
Q 3109 3797 2882 3972 
Q 2656 4147 2194 4147 
L 1259 4147 
z
M 628 4666 
L 2241 4666 
Q 2963 4666 3353 4366 
Q 3744 4066 3744 3513 
Q 3744 3084 3544 2831 
Q 3344 2578 2956 2516 
Q 3422 2416 3680 2098 
Q 3938 1781 3938 1306 
Q 3938 681 3513 340 
Q 3088 0 2303 0 
L 628 0 
L 628 4666 
z
" transform="scale(0.015625)"/>
       <path id="DejaVuSans-2f" d="M 1625 4666 
L 2156 4666 
L 531 -594 
L 0 -594 
L 1625 4666 
z
" transform="scale(0.015625)"/>
       <path id="DejaVuSans-29" d="M 513 4856 
L 1013 4856 
Q 1481 4119 1714 3412 
Q 1947 2706 1947 2009 
Q 1947 1309 1714 600 
Q 1481 -109 1013 -844 
L 513 -844 
Q 928 -128 1133 580 
Q 1338 1288 1338 2009 
Q 1338 2731 1133 3434 
Q 928 4138 513 4856 
z
" transform="scale(0.015625)"/>
      </defs>
      <use xlink:href="#DejaVuSans-52"/>
      <use xlink:href="#DejaVuSans-65" x="64.982422"/>
      <use xlink:href="#DejaVuSans-61" x="126.505859"/>
      <use xlink:href="#DejaVuSans-64" x="187.785156"/>
      <use xlink:href="#DejaVuSans-20" x="251.261719"/>
      <use xlink:href="#DejaVuSans-54" x="283.048828"/>
      <use xlink:href="#DejaVuSans-68" x="344.132812"/>
      <use xlink:href="#DejaVuSans-72" x="407.511719"/>
      <use xlink:href="#DejaVuSans-6f" x="446.375"/>
      <use xlink:href="#DejaVuSans-75" x="507.556641"/>
      <use xlink:href="#DejaVuSans-67" x="570.935547"/>
      <use xlink:href="#DejaVuSans-68" x="634.412109"/>
      <use xlink:href="#DejaVuSans-70" x="697.791016"/>
      <use xlink:href="#DejaVuSans-75" x="761.267578"/>
      <use xlink:href="#DejaVuSans-74" x="824.646484"/>
      <use xlink:href="#DejaVuSans-20" x="863.855469"/>
      <use xlink:href="#DejaVuSans-28" x="895.642578"/>
      <use xlink:href="#DejaVuSans-47" x="934.65625"/>
      <use xlink:href="#DejaVuSans-42" x="1012.146484"/>
      <use xlink:href="#DejaVuSans-2f" x="1080.75"/>
      <use xlink:href="#DejaVuSans-73" x="1114.441406"/>
      <use xlink:href="#DejaVuSans-29" x="1166.541016"/>
     </g>
    </g>
   </g>
   <g id="patch_3">
    <path d="M 46.78 249.22 
L 637.2 249.22 
" style="fill: none; stroke: #94a3b8; stroke-width: 0.8; stroke-linejoin: miter; stroke-linecap: square"/>
   </g>
   <g id="patch_4">
    <path d="M 73.617273 249.22 
L 87.994383 249.22 
L 87.994383 43.683025 
L 73.617273 43.683025 
z
" clip-path="url(#p56745a70fe)" style="fill: #1d4ed8; stroke: #ffffff; stroke-width: 0.5; stroke-linejoin: miter"/>
   </g>
   <g id="patch_5">
    <path d="M 153.490108 249.22 
L 167.867219 249.22 
L 167.867219 43.683025 
L 153.490108 43.683025 
z
" clip-path="url(#p56745a70fe)" style="fill: #1d4ed8; stroke: #ffffff; stroke-width: 0.5; stroke-linejoin: miter"/>
   </g>
   <g id="patch_6">
    <path d="M 233.362944 249.22 
L 247.740054 249.22 
L 247.740054 57.7609 
L 233.362944 57.7609 
z
" clip-path="url(#p56745a70fe)" style="fill: #1d4ed8; stroke: #ffffff; stroke-width: 0.5; stroke-linejoin: miter"/>
   </g>
   <g id="patch_7">
    <path d="M 313.235779 249.22 
L 327.61289 249.22 
L 327.61289 51.191225 
L 313.235779 51.191225 
z
" clip-path="url(#p56745a70fe)" style="fill: #1d4ed8; stroke: #ffffff; stroke-width: 0.5; stroke-linejoin: miter"/>
   </g>
   <g id="patch_8">
    <path d="M 393.108615 249.22 
L 407.485725 249.22 
L 407.485725 51.191225 
L 393.108615 51.191225 
z
" clip-path="url(#p56745a70fe)" style="fill: #1d4ed8; stroke: #ffffff; stroke-width: 0.5; stroke-linejoin: miter"/>
   </g>
   <g id="patch_9">
    <path d="M 472.98145 249.22 
L 487.358561 249.22 
L 487.358561 54.945325 
L 472.98145 54.945325 
z
" clip-path="url(#p56745a70fe)" style="fill: #1d4ed8; stroke: #ffffff; stroke-width: 0.5; stroke-linejoin: miter"/>
   </g>
   <g id="patch_10">
    <path d="M 552.854286 249.22 
L 567.231396 249.22 
L 567.231396 65.2691 
L 552.854286 65.2691 
z
" clip-path="url(#p56745a70fe)" style="fill: #1d4ed8; stroke: #ffffff; stroke-width: 0.5; stroke-linejoin: miter"/>
   </g>
   <g id="patch_11">
    <path d="M 87.994383 249.22 
L 102.371494 249.22 
L 102.371494 120.642075 
L 87.994383 120.642075 
z
" clip-path="url(#p56745a70fe)" style="fill: #93c5fd; stroke: #ffffff; stroke-width: 0.5; stroke-linejoin: miter"/>
   </g>
   <g id="patch_12">
    <path d="M 167.867219 249.22 
L 182.244329 249.22 
L 182.244329 112.19535 
L 167.867219 112.19535 
z
" clip-path="url(#p56745a70fe)" style="fill: #93c5fd; stroke: #ffffff; stroke-width: 0.5; stroke-linejoin: miter"/>
   </g>
   <g id="patch_13">
    <path d="M 247.740054 249.22 
L 262.117165 249.22 
L 262.117165 124.396175 
L 247.740054 124.396175 
z
" clip-path="url(#p56745a70fe)" style="fill: #93c5fd; stroke: #ffffff; stroke-width: 0.5; stroke-linejoin: miter"/>
   </g>
   <g id="patch_14">
    <path d="M 327.61289 249.22 
L 341.99 249.22 
L 341.99 116.887975 
L 327.61289 116.887975 
z
" clip-path="url(#p56745a70fe)" style="fill: #93c5fd; stroke: #ffffff; stroke-width: 0.5; stroke-linejoin: miter"/>
   </g>
   <g id="patch_15">
    <path d="M 407.485725 249.22 
L 421.862835 249.22 
L 421.862835 119.70355 
L 407.485725 119.70355 
z
" clip-path="url(#p56745a70fe)" style="fill: #93c5fd; stroke: #ffffff; stroke-width: 0.5; stroke-linejoin: miter"/>
   </g>
   <g id="patch_16">
    <path d="M 487.358561 249.22 
L 501.735671 249.22 
L 501.735671 128.150275 
L 487.358561 128.150275 
z
" clip-path="url(#p56745a70fe)" style="fill: #93c5fd; stroke: #ffffff; stroke-width: 0.5; stroke-linejoin: miter"/>
   </g>
   <g id="patch_17">
    <path d="M 567.231396 249.22 
L 581.608506 249.22 
L 581.608506 127.21175 
L 567.231396 127.21175 
z
" clip-path="url(#p56745a70fe)" style="fill: #93c5fd; stroke: #ffffff; stroke-width: 0.5; stroke-linejoin: miter"/>
   </g>
   <g id="patch_18">
    <path d="M 102.371494 249.22 
L 116.748604 249.22 
L 116.748604 249.22 
L 102.371494 249.22 
L 102.371494 249.22 
z
" clip-path="url(#p56745a70fe)" style="fill: none"/>
   </g>
   <g id="patch_19">
    <path d="M 182.244329 249.22 
L 196.621439 249.22 
L 196.621439 122.519125 
L 182.244329 122.519125 
z
" clip-path="url(#p56745a70fe)" style="fill: #64748b; stroke: #ffffff; stroke-width: 0.5; stroke-linejoin: miter"/>
   </g>
   <g id="patch_20">
    <path d="M 262.117165 249.22 
L 276.494275 249.22 
L 276.494275 249.22 
L 262.117165 249.22 
L 262.117165 249.22 
z
" clip-path="url(#p56745a70fe)" style="fill: none"/>
   </g>
   <g id="patch_21">
    <path d="M 341.99 249.22 
L 356.36711 249.22 
L 356.36711 249.22 
L 341.99 249.22 
L 341.99 249.22 
z
" clip-path="url(#p56745a70fe)" style="fill: none"/>
   </g>
   <g id="patch_22">
    <path d="M 421.862835 249.22 
L 436.239946 249.22 
L 436.239946 47.437125 
L 421.862835 47.437125 
z
" clip-path="url(#p56745a70fe)" style="fill: #64748b; stroke: #ffffff; stroke-width: 0.5; stroke-linejoin: miter"/>
   </g>
   <g id="patch_23">
    <path d="M 501.735671 249.22 
L 516.112781 249.22 
L 516.112781 249.22 
L 501.735671 249.22 
L 501.735671 249.22 
z
" clip-path="url(#p56745a70fe)" style="fill: none"/>
   </g>
   <g id="patch_24">
    <path d="M 581.608506 249.22 
L 595.985617 249.22 
L 595.985617 249.22 
L 581.608506 249.22 
L 581.608506 249.22 
z
" clip-path="url(#p56745a70fe)" style="fill: none"/>
   </g>
   <g id="patch_25">
    <path d="M 116.748604 249.22 
L 131.125714 249.22 
L 131.125714 249.22 
L 116.748604 249.22 
L 116.748604 249.22 
z
" clip-path="url(#p56745a70fe)" style="fill: none"/>
   </g>
   <g id="patch_26">
    <path d="M 196.621439 249.22 
L 210.99855 249.22 
L 210.99855 124.396175 
L 196.621439 124.396175 
z
" clip-path="url(#p56745a70fe)" style="fill: #cbd5e1; stroke: #ffffff; stroke-width: 0.5; stroke-linejoin: miter"/>
   </g>
   <g id="patch_27">
    <path d="M 276.494275 249.22 
L 290.871385 249.22 
L 290.871385 165.691275 
L 276.494275 165.691275 
z
" clip-path="url(#p56745a70fe)" style="fill: #cbd5e1; stroke: #ffffff; stroke-width: 0.5; stroke-linejoin: miter"/>
   </g>
   <g id="patch_28">
    <path d="M 356.36711 249.22 
L 370.744221 249.22 
L 370.744221 151.6134 
L 356.36711 151.6134 
z
" clip-path="url(#p56745a70fe)" style="fill: #cbd5e1; stroke: #ffffff; stroke-width: 0.5; stroke-linejoin: miter"/>
   </g>
   <g id="patch_29">
    <path d="M 436.239946 249.22 
L 450.617056 249.22 
L 450.617056 118.765025 
L 436.239946 118.765025 
z
" clip-path="url(#p56745a70fe)" style="fill: #cbd5e1; stroke: #ffffff; stroke-width: 0.5; stroke-linejoin: miter"/>
   </g>
   <g id="patch_30">
    <path d="M 516.112781 249.22 
L 530.489892 249.22 
L 530.489892 177.8921 
L 516.112781 177.8921 
z
" clip-path="url(#p56745a70fe)" style="fill: #cbd5e1; stroke: #ffffff; stroke-width: 0.5; stroke-linejoin: miter"/>
   </g>
   <g id="patch_31">
    <path d="M 595.985617 249.22 
L 610.362727 249.22 
L 610.362727 122.519125 
L 595.985617 122.519125 
z
" clip-path="url(#p56745a70fe)" style="fill: #cbd5e1; stroke: #ffffff; stroke-width: 0.5; stroke-linejoin: miter"/>
   </g>
   <g id="legend_1">
    <g id="patch_32">
     <path d="M 183.744375 26.131229 
L 199.744375 26.131229 
L 199.744375 20.531229 
L 183.744375 20.531229 
z
" style="fill: #1d4ed8"/>
    </g>
    <g id="text_15">
     <!-- ztensor -->
     <g transform="translate(206.144375 26.131229) scale(0.08 -0.08)">
      <use xlink:href="#DejaVuSans-7a"/>
      <use xlink:href="#DejaVuSans-74" x="52.490234"/>
      <use xlink:href="#DejaVuSans-65" x="91.699219"/>
      <use xlink:href="#DejaVuSans-6e" x="153.222656"/>
      <use xlink:href="#DejaVuSans-73" x="216.601562"/>
      <use xlink:href="#DejaVuSans-6f" x="268.701172"/>
      <use xlink:href="#DejaVuSans-72" x="329.882812"/>
     </g>
    </g>
    <g id="patch_33">
     <path d="M 251.823125 26.131229 
L 267.823125 26.131229 
L 267.823125 20.531229 
L 251.823125 20.531229 
z
" style="fill: #93c5fd"/>
    </g>
    <g id="text_16">
     <!-- ztensor (zc off) -->
     <g transform="translate(274.223125 26.131229) scale(0.08 -0.08)">
      <defs>
       <path id="DejaVuSans-63" d="M 3122 3366 
L 3122 2828 
Q 2878 2963 2633 3030 
Q 2388 3097 2138 3097 
Q 1578 3097 1268 2742 
Q 959 2388 959 1747 
Q 959 1106 1268 751 
Q 1578 397 2138 397 
Q 2388 397 2633 464 
Q 2878 531 3122 666 
L 3122 134 
Q 2881 22 2623 -34 
Q 2366 -91 2075 -91 
Q 1284 -91 818 406 
Q 353 903 353 1747 
Q 353 2603 823 3093 
Q 1294 3584 2113 3584 
Q 2378 3584 2631 3529 
Q 2884 3475 3122 3366 
z
" transform="scale(0.015625)"/>
      </defs>
      <use xlink:href="#DejaVuSans-7a"/>
      <use xlink:href="#DejaVuSans-74" x="52.490234"/>
      <use xlink:href="#DejaVuSans-65" x="91.699219"/>
      <use xlink:href="#DejaVuSans-6e" x="153.222656"/>
      <use xlink:href="#DejaVuSans-73" x="216.601562"/>
      <use xlink:href="#DejaVuSans-6f" x="268.701172"/>
      <use xlink:href="#DejaVuSans-72" x="329.882812"/>
      <use xlink:href="#DejaVuSans-20" x="370.996094"/>
      <use xlink:href="#DejaVuSans-28" x="402.783203"/>
      <use xlink:href="#DejaVuSans-7a" x="441.796875"/>
      <use xlink:href="#DejaVuSans-63" x="494.287109"/>
      <use xlink:href="#DejaVuSans-20" x="549.267578"/>
      <use xlink:href="#DejaVuSans-6f" x="581.054688"/>
      <use xlink:href="#DejaVuSans-66" x="642.236328"/>
      <use xlink:href="#DejaVuSans-66" x="677.441406"/>
      <use xlink:href="#DejaVuSans-29" x="712.646484"/>
     </g>
    </g>
    <g id="patch_34">
     <path d="M 350.354375 26.131229 
L 366.354375 26.131229 
L 366.354375 20.531229 
L 350.354375 20.531229 
z
" style="fill: #64748b"/>
    </g>
    <g id="text_17">
     <!-- ref. zero-copy -->
     <g transform="translate(372.754375 26.131229) scale(0.08 -0.08)">
      <defs>
       <path id="DejaVuSans-2d" d="M 313 2009 
L 1997 2009 
L 1997 1497 
L 313 1497 
L 313 2009 
z
" transform="scale(0.015625)"/>
       <path id="DejaVuSans-79" d="M 2059 -325 
Q 1816 -950 1584 -1140 
Q 1353 -1331 966 -1331 
L 506 -1331 
L 506 -850 
L 844 -850 
Q 1081 -850 1212 -737 
Q 1344 -625 1503 -206 
L 1606 56 
L 191 3500 
L 800 3500 
L 1894 763 
L 2988 3500 
L 3597 3500 
L 2059 -325 
z
" transform="scale(0.015625)"/>
      </defs>
      <use xlink:href="#DejaVuSans-72"/>
      <use xlink:href="#DejaVuSans-65" x="38.863281"/>
      <use xlink:href="#DejaVuSans-66" x="100.386719"/>
      <use xlink:href="#DejaVuSans-2e" x="128.341797"/>
      <use xlink:href="#DejaVuSans-20" x="160.128906"/>
      <use xlink:href="#DejaVuSans-7a" x="191.916016"/>
      <use xlink:href="#DejaVuSans-65" x="244.40625"/>
      <use xlink:href="#DejaVuSans-72" x="305.929688"/>
      <use xlink:href="#DejaVuSans-6f" x="344.792969"/>
      <use xlink:href="#DejaVuSans-2d" x="407.849609"/>
      <use xlink:href="#DejaVuSans-63" x="443.933594"/>
      <use xlink:href="#DejaVuSans-6f" x="498.914062"/>
      <use xlink:href="#DejaVuSans-70" x="560.095703"/>
      <use xlink:href="#DejaVuSans-79" x="623.572266"/>
     </g>
    </g>
    <g id="patch_35">
     <path d="M 443.375625 26.131229 
L 459.375625 26.131229 
L 459.375625 20.531229 
L 443.375625 20.531229 
z
" style="fill: #cbd5e1"/>
    </g>
    <g id="text_18">
     <!-- ref. copy -->
     <g transform="translate(465.775625 26.131229) scale(0.08 -0.08)">
      <use xlink:href="#DejaVuSans-72"/>
      <use xlink:href="#DejaVuSans-65" x="38.863281"/>
      <use xlink:href="#DejaVuSans-66" x="100.386719"/>
      <use xlink:href="#DejaVuSans-2e" x="128.341797"/>
      <use xlink:href="#DejaVuSans-20" x="160.128906"/>
      <use xlink:href="#DejaVuSans-63" x="191.916016"/>
      <use xlink:href="#DejaVuSans-6f" x="246.896484"/>
      <use xlink:href="#DejaVuSans-70" x="308.078125"/>
      <use xlink:href="#DejaVuSans-79" x="371.554688"/>
     </g>
    </g>
   </g>
  </g>
 </g>
 <defs>
  <clipPath id="p56745a70fe">
   <rect x="46.78" y="12.852479" width="590.42" height="236.367521"/>
  </clipPath>
 </defs>
</svg>
