<svg xmlns="http://www.w3.org/2000/svg" viewBox="0 0 720 254" width="720" height="254" role="img" aria-label="The same three tensors written twice. In canonical .zt each starts on a 64 KiB page boundary and padding fills the rest, so every page holds one tensor. In safetensors they are packed back to back and two pages end up holding two tensors each.">
  <style>
    text { font-family: system-ui, -apple-system, "Segoe UI", Roboto, sans-serif; }
    .mono { font-family: ui-monospace, SFMono-Regular, Menlo, Consolas, monospace; }
    .fg { fill: #1c1e21; }
    .dim { fill: #57606a; }
    .rule { stroke: #d0d7de; }
    .edge { stroke: #b6bfc8; }
    .fill-alt { fill: #f6f7f8; }
    .accent { fill: #2b6cb0; }
    .accent-s { stroke: #2b6cb0; }
    .on-accent { fill: #ffffff; }
    .pad { stroke: #b6bfc8; }
    .warn { fill: #d64545; stroke: #d64545; }
    @media (prefers-color-scheme: dark) {
      .fg { fill: #e3e3e3; }
      .dim { fill: #a8a8a8; }
      .rule { stroke: #3a3b3f; }
      .edge { stroke: #4d4e53; }
      .fill-alt { fill: #242526; }
      .accent { fill: #78a9e0; }
      .accent-s { stroke: #78a9e0; }
      .on-accent { fill: #1b1b1d; }
      .pad { stroke: #4d4e53; }
      .warn { fill: #f08a8a; stroke: #f08a8a; }
    }
  </style>
  <line class="rule" x1="112.0" y1="46" x2="112.0" y2="228" stroke-width="1" />
  <text class="mono dim" x="112.0" y="38" font-size="10" text-anchor="middle">0</text>
  <line class="rule" x1="257.0" y1="46" x2="257.0" y2="228" stroke-width="1" />
  <text class="mono dim" x="257.0" y="38" font-size="10" text-anchor="middle">64 KiB</text>
  <line class="rule" x1="402.0" y1="46" x2="402.0" y2="228" stroke-width="1" />
  <text class="mono dim" x="402.0" y="38" font-size="10" text-anchor="middle">128</text>
  <line class="rule" x1="547.0" y1="46" x2="547.0" y2="228" stroke-width="1" />
  <text class="mono dim" x="547.0" y="38" font-size="10" text-anchor="middle">192</text>
  <line class="rule" x1="692.0" y1="46" x2="692.0" y2="228" stroke-width="1" />
  <text class="mono dim" x="692.0" y="38" font-size="10" text-anchor="middle">256</text>
  <text class="mono dim" x="112.0" y="244" font-size="10">each column is one 64 KiB page</text>
  <text class="fg" x="98.0" y="87" font-size="13" text-anchor="end">.zt</text>
  <text class="mono dim" x="98.0" y="102" font-size="10" text-anchor="end">canonical</text>
  <rect class="accent" x="112.0" y="70" width="226.6" height="36" rx="2" />
  <text class="mono on-accent" x="120.0" y="92" font-size="11">a</text>
  <clipPath id="c70128"><rect x="338.6" y="70" width="63.4" height="36" /></clipPath>
  <g class="pad" stroke-width="1" opacity="0.5" clip-path="url(#c70128)"><line x1="302.6" y1="106" x2="338.6" y2="70" /><line x1="308.6" y1="106" x2="344.6" y2="70" /><line x1="314.6" y1="106" x2="350.6" y2="70" /><line x1="320.6" y1="106" x2="356.6" y2="70" /><line x1="326.6" y1="106" x2="362.6" y2="70" /><line x1="332.6" y1="106" x2="368.6" y2="70" /><line x1="338.6" y1="106" x2="374.6" y2="70" /><line x1="344.6" y1="106" x2="380.6" y2="70" /><line x1="350.6" y1="106" x2="386.6" y2="70" /><line x1="356.6" y1="106" x2="392.6" y2="70" /><line x1="362.6" y1="106" x2="398.6" y2="70" /><line x1="368.6" y1="106" x2="404.6" y2="70" /><line x1="374.6" y1="106" x2="410.6" y2="70" /><line x1="380.6" y1="106" x2="416.6" y2="70" /><line x1="386.6" y1="106" x2="422.6" y2="70" /><line x1="392.6" y1="106" x2="428.6" y2="70" /><line x1="398.6" y1="106" x2="434.6" y2="70" /><line x1="404.6" y1="106" x2="440.6" y2="70" /><line x1="410.6" y1="106" x2="446.6" y2="70" /><line x1="416.6" y1="106" x2="452.6" y2="70" /><line x1="422.6" y1="106" x2="458.6" y2="70" /><line x1="428.6" y1="106" x2="464.6" y2="70" /><line x1="434.6" y1="106" x2="470.6" y2="70" /></g>
  <rect x="338.6" y="70" width="63.4" height="36" fill="none" class="edge" stroke-width="1" />
  <text class="mono dim" x="370.3" y="60" font-size="9.5" text-anchor="middle">padding</text>
  <rect class="accent" x="402.0" y="70" width="113.3" height="36" rx="2" />
  <text class="mono on-accent" x="410.0" y="92" font-size="11">b</text>
  <clipPath id="c70192"><rect x="515.3" y="70" width="31.7" height="36" /></clipPath>
  <g class="pad" stroke-width="1" opacity="0.5" clip-path="url(#c70192)"><line x1="479.3" y1="106" x2="515.3" y2="70" /><line x1="485.3" y1="106" x2="521.3" y2="70" /><line x1="491.3" y1="106" x2="527.3" y2="70" /><line x1="497.3" y1="106" x2="533.3" y2="70" /><line x1="503.3" y1="106" x2="539.3" y2="70" /><line x1="509.3" y1="106" x2="545.3" y2="70" /><line x1="515.3" y1="106" x2="551.3" y2="70" /><line x1="521.3" y1="106" x2="557.3" y2="70" /><line x1="527.3" y1="106" x2="563.3" y2="70" /><line x1="533.3" y1="106" x2="569.3" y2="70" /><line x1="539.3" y1="106" x2="575.3" y2="70" /><line x1="545.3" y1="106" x2="581.3" y2="70" /><line x1="551.3" y1="106" x2="587.3" y2="70" /><line x1="557.3" y1="106" x2="593.3" y2="70" /><line x1="563.3" y1="106" x2="599.3" y2="70" /><line x1="569.3" y1="106" x2="605.3" y2="70" /><line x1="575.3" y1="106" x2="611.3" y2="70" /><line x1="581.3" y1="106" x2="617.3" y2="70" /></g>
  <rect x="515.3" y="70" width="31.7" height="36" fill="none" class="edge" stroke-width="1" />
  <rect class="accent" x="547.0" y="70" width="135.9" height="36" rx="2" />
  <text class="mono on-accent" x="555.0" y="92" font-size="11">c</text>
  <text class="dim" x="112.0" y="124" font-size="11">every page holds one tensor — any of them can be mapped, or dropped, on its own</text>
  <text class="fg" x="98.0" y="193" font-size="13" text-anchor="end">safetensors</text>
  <text class="mono dim" x="98.0" y="208" font-size="10" text-anchor="end">packed</text>
  <rect class="warn" x="257.0" y="169" width="145.0" height="50" rx="2" fill-opacity="0.13" stroke-width="1.5" stroke-opacity="0.75" />
  <rect class="warn" x="402.0" y="169" width="145.0" height="50" rx="2" fill-opacity="0.13" stroke-width="1.5" stroke-opacity="0.75" />
  <rect class="accent" x="112.0" y="176" width="226.6" height="36" rx="2" />
  <text class="mono on-accent" x="120.0" y="198" font-size="11">a</text>
  <rect class="accent" x="338.6" y="176" width="113.3" height="36" rx="2" />
  <text class="mono on-accent" x="346.6" y="198" font-size="11">b</text>
  <rect class="accent" x="451.8" y="176" width="135.9" height="36" rx="2" />
  <text class="mono on-accent" x="459.8" y="198" font-size="11">c</text>
  <text class="mono warn" x="329.5" y="164" font-size="9.5" text-anchor="middle" stroke="none">a + b</text>
  <text class="mono warn" x="474.5" y="164" font-size="9.5" text-anchor="middle" stroke="none">b + c</text>
  <text class="dim" x="112.0" y="230" font-size="11">2 pages hold two tensors — neither can be dropped without the other</text>
</svg>
