<svg xmlns="http://www.w3.org/2000/svg" viewBox="0 0 720 678" width="720" height="678" role="img" aria-label="The three layers and what sits above them. L0 is the container: magic, a heap of page-aligned blobs that are all alike, the manifest blob and a footer. L1 is the manifest, naming for each tensor a shape, a layout, attributes, and for each part a dtype, a value type, a digest and a blob range. L2 is the vocabulary: names only. Above all three, outside the format, a framework such as torch reads those names and decides what the values mean.">
  <style>
    text { font-family: system-ui, -apple-system, "Segoe UI", Roboto, sans-serif; }
    .mono { font-family: ui-monospace, SFMono-Regular, Menlo, Consolas, monospace; }
    .fg { fill: #1c1e21; }
    .dim { fill: #57606a; }
    .rule { stroke: #d0d7de; }
    .edge { stroke: #b6bfc8; }
    .fill-alt { fill: #f6f7f8; }
    .accent { fill: #2b6cb0; }
    .accent-s { stroke: #2b6cb0; }
    .on-accent { fill: #ffffff; }
    .pad { stroke: #b6bfc8; }
    @media (prefers-color-scheme: dark) {
      .fg { fill: #e3e3e3; }
      .dim { fill: #a8a8a8; }
      .rule { stroke: #3a3b3f; }
      .edge { stroke: #4d4e53; }
      .fill-alt { fill: #242526; }
      .accent { fill: #78a9e0; }
      .accent-s { stroke: #78a9e0; }
      .on-accent { fill: #1b1b1d; }
      .pad { stroke: #4d4e53; }
    }
  </style>
  <rect x="118" y="18" width="578" height="84" rx="3" class="fill-alt edge" stroke-width="1" stroke-dasharray="5 4" />
  <text class="fg" x="140.0" y="44.0" font-size="14" font-weight="600" xml:space="preserve">torch · numpy · your loader</text>
  <text class="mono dim" x="674.0" y="44.0" font-size="10.5" text-anchor="end" xml:space="preserve">outside the format</text>
  <text class="mono fg" x="140.0" y="68.0" font-size="10.5" xml:space="preserve">zt.quant_group/1 + f4_e2m1 + f8_e8m0  →  bf16</text>
  <text class="dim" x="140.0" y="88.0" font-size="11" xml:space="preserve">This decision is theirs, not ours.</text>
  <line class="edge" x1="162" y1="128" x2="162" y2="108" stroke-width="1.2" />
  <path d="M 158 114 L 162 104 L 166 114 Z" class="dim" />
  <text class="dim" x="178.0" y="122.0" font-size="11" xml:space="preserve">zTensor hands over bytes and names, and stops.</text>
  <rect x="118" y="134" width="578" height="104" rx="3" class="fill-alt edge" stroke-width="1" />
  <text class="mono accent" x="102.0" y="160.0" font-size="13" text-anchor="end" xml:space="preserve">L2</text>
  <text class="fg" x="140.0" y="160.0" font-size="14" font-weight="600" xml:space="preserve">Vocabulary</text>
  <text class="mono dim" x="674.0" y="160.0" font-size="10.5" text-anchor="end" xml:space="preserve">mortal — names only, refusable</text>
  <text class="dim" x="242.0" y="190.0" font-size="10.5" text-anchor="end" xml:space="preserve">layouts</text>
  <rect x="254.0" y="176" width="49.6" height="20" rx="10" class="fill-alt edge" stroke-width="1" />
  <text class="mono fg" x="278.8" y="190.0" font-size="10.5" text-anchor="middle" xml:space="preserve">dense</text>
  <rect x="312.6" y="176" width="119.1" height="20" rx="10" class="accent" stroke-width="1" />
  <text class="mono on-accent" x="372.2" y="190.0" font-size="10.5" text-anchor="middle" xml:space="preserve">zt.quant_group/1</text>
  <rect x="440.7" y="176" width="87.5" height="20" rx="10" class="fill-alt edge" stroke-width="1" />
  <text class="mono fg" x="484.5" y="190.0" font-size="10.5" text-anchor="middle" xml:space="preserve">gguf.q4_k/1</text>
  <text class="dim" x="242.0" y="216.0" font-size="10.5" text-anchor="end" xml:space="preserve">value types</text>
  <rect x="254.0" y="202" width="43.3" height="20" rx="10" class="fill-alt edge" stroke-width="1" />
  <text class="mono fg" x="275.6" y="216.0" font-size="10.5" text-anchor="middle" xml:space="preserve">bool</text>
  <rect x="306.3" y="202" width="62.2" height="20" rx="10" class="fill-alt edge" stroke-width="1" />
  <text class="mono fg" x="337.4" y="216.0" font-size="10.5" text-anchor="middle" xml:space="preserve">f4_e2m1</text>
  <rect x="377.5" y="202" width="62.2" height="20" rx="10" class="fill-alt edge" stroke-width="1" />
  <text class="mono fg" x="408.7" y="216.0" font-size="10.5" text-anchor="middle" xml:space="preserve">f8_e8m0</text>
  <rect x="118" y="268" width="578" height="261.5" rx="3" class="fill-alt edge" stroke-width="1" />
  <text class="mono accent" x="102.0" y="294.0" font-size="13" text-anchor="end" xml:space="preserve">L1</text>
  <text class="fg" x="140.0" y="294.0" font-size="14" font-weight="600" xml:space="preserve">Manifest</text>
  <text class="mono dim" x="674.0" y="294.0" font-size="10.5" text-anchor="end" xml:space="preserve">deterministic CBOR — version-gated</text>
  <text class="mono fg" x="140.0" y="314.0" font-size="10.5" font-weight="600" xml:space="preserve">"layer.0.w"</text>
  <text class="mono dim" x="209.5" y="314.0" font-size="10.5" xml:space="preserve">: {</text>
  <text class="mono dim" x="140.0" y="329.5" font-size="10.5" xml:space="preserve">  shape:      </text>
  <text class="mono fg" x="228.5" y="329.5" font-size="10.5" xml:space="preserve">[4096, 4096]</text>
  <text class="mono dim" x="140.0" y="345.0" font-size="10.5" xml:space="preserve">  layout:     </text>
  <text class="mono accent" x="228.5" y="345.0" font-size="10.5" xml:space="preserve">"zt.quant_group/1"</text>
  <text class="mono dim" x="140.0" y="360.5" font-size="10.5" xml:space="preserve">  attributes: </text>
  <text class="mono fg" x="228.5" y="360.5" font-size="10.5" xml:space="preserve">{ … }</text>
  <text class="mono dim" x="140.0" y="376.0" font-size="10.5" xml:space="preserve">  parts: {</text>
  <text class="mono dim" x="140.0" y="391.5" font-size="10.5" xml:space="preserve">    data:   { dtype: </text>
  <text class="mono fg" x="272.7" y="391.5" font-size="10.5" xml:space="preserve">u8</text>
  <text class="mono dim" x="285.4" y="391.5" font-size="10.5" xml:space="preserve">, type: </text>
  <text class="mono fg" x="336.0" y="391.5" font-size="10.5" xml:space="preserve">"f4_e2m1"</text>
  <text class="mono dim" x="392.8" y="391.5" font-size="10.5" xml:space="preserve">,</text>
  <text class="mono dim" x="140.0" y="407.0" font-size="10.5" xml:space="preserve">              digest: </text>
  <text class="mono fg" x="279.1" y="407.0" font-size="10.5" xml:space="preserve">"xxh3:9f3c…"</text>
  <text class="mono dim" x="354.9" y="407.0" font-size="10.5" xml:space="preserve">,</text>
  <text class="mono dim" x="140.0" y="422.5" font-size="10.5" xml:space="preserve">              blob: </text>
  <text class="mono accent" x="266.4" y="422.5" font-size="10.5" xml:space="preserve">[offset 65536, length 8388608]</text>
  <text class="mono dim" x="456.0" y="422.5" font-size="10.5" xml:space="preserve"> }</text>
  <text class="mono dim" x="140.0" y="438.0" font-size="10.5" xml:space="preserve">    scales: { dtype: </text>
  <text class="mono fg" x="272.7" y="438.0" font-size="10.5" xml:space="preserve">u8</text>
  <text class="mono dim" x="285.4" y="438.0" font-size="10.5" xml:space="preserve">, type: </text>
  <text class="mono fg" x="336.0" y="438.0" font-size="10.5" xml:space="preserve">"f8_e8m0"</text>
  <text class="mono dim" x="392.8" y="438.0" font-size="10.5" xml:space="preserve">,</text>
  <text class="mono dim" x="140.0" y="453.5" font-size="10.5" xml:space="preserve">              digest: </text>
  <text class="mono fg" x="279.1" y="453.5" font-size="10.5" xml:space="preserve">"xxh3:41ab…"</text>
  <text class="mono dim" x="354.9" y="453.5" font-size="10.5" xml:space="preserve">,</text>
  <text class="mono dim" x="140.0" y="469.0" font-size="10.5" xml:space="preserve">              blob: </text>
  <text class="mono fg" x="266.4" y="469.0" font-size="10.5" xml:space="preserve">[offset 8454144, length 262144]</text>
  <text class="mono dim" x="462.4" y="469.0" font-size="10.5" xml:space="preserve"> } }</text>
  <text class="mono dim" x="140.0" y="484.5" font-size="10.5" xml:space="preserve">  }</text>
  <text class="mono dim" x="159.0" y="484.5" font-size="10.5" xml:space="preserve">}</text>
  <text class="mono dim" x="140.0" y="500.0" font-size="10.5" xml:space="preserve">shards: { </text>
  <text class="mono fg" x="203.2" y="500.0" font-size="10.5" xml:space="preserve">"00001": { size: 4294967296, digest: "xxh3:a91f…" }</text>
  <text class="mono dim" x="525.6" y="500.0" font-size="10.5" xml:space="preserve"> }</text>
  <rect x="118" y="559.5" width="578" height="96" rx="3" class="fill-alt edge" stroke-width="2" />
  <text class="mono accent" x="102.0" y="585.5" font-size="13" text-anchor="end" xml:space="preserve">L0</text>
  <text class="fg" x="140.0" y="585.5" font-size="14" font-weight="600" xml:space="preserve">Container</text>
  <text class="mono dim" x="674.0" y="585.5" font-size="10.5" text-anchor="end" xml:space="preserve">frozen — never changes</text>
  <rect x="140" y="599.5" width="46" height="28" rx="2" fill="none" class="edge" stroke-width="1" />
  <text class="mono dim" x="163.0" y="617.5" font-size="10" text-anchor="middle" xml:space="preserve">magic</text>
  <rect class="accent" x="186" y="599.5" width="62" height="28" rx="2" opacity="0.4" />
  <clipPath id="z248"><rect x="248" y="599.5" width="16" height="28" /></clipPath>
  <g class="pad" stroke-width="1" opacity="0.5" clip-path="url(#z248)"><line x1="220" y1="627.5" x2="248" y2="599.5" /><line x1="226" y1="627.5" x2="254" y2="599.5" /><line x1="232" y1="627.5" x2="260" y2="599.5" /><line x1="238" y1="627.5" x2="266" y2="599.5" /><line x1="244" y1="627.5" x2="272" y2="599.5" /><line x1="250" y1="627.5" x2="278" y2="599.5" /><line x1="256" y1="627.5" x2="284" y2="599.5" /><line x1="262" y1="627.5" x2="290" y2="599.5" /><line x1="268" y1="627.5" x2="296" y2="599.5" /><line x1="274" y1="627.5" x2="302" y2="599.5" /><line x1="280" y1="627.5" x2="308" y2="599.5" /><line x1="286" y1="627.5" x2="314" y2="599.5" /></g>
  <rect x="248" y="599.5" width="16" height="28" fill="none" class="edge" stroke-width="1" />
  <rect class="accent" x="264" y="599.5" width="90" height="28" rx="2" opacity="1" />
  <clipPath id="z354"><rect x="354" y="599.5" width="14" height="28" /></clipPath>
  <g class="pad" stroke-width="1" opacity="0.5" clip-path="url(#z354)"><line x1="326" y1="627.5" x2="354" y2="599.5" /><line x1="332" y1="627.5" x2="360" y2="599.5" /><line x1="338" y1="627.5" x2="366" y2="599.5" /><line x1="344" y1="627.5" x2="372" y2="599.5" /><line x1="350" y1="627.5" x2="378" y2="599.5" /><line x1="356" y1="627.5" x2="384" y2="599.5" /><line x1="362" y1="627.5" x2="390" y2="599.5" /><line x1="368" y1="627.5" x2="396" y2="599.5" /><line x1="374" y1="627.5" x2="402" y2="599.5" /><line x1="380" y1="627.5" x2="408" y2="599.5" /><line x1="386" y1="627.5" x2="414" y2="599.5" /><line x1="392" y1="627.5" x2="420" y2="599.5" /></g>
  <rect x="354" y="599.5" width="14" height="28" fill="none" class="edge" stroke-width="1" />
  <rect class="accent" x="368" y="599.5" width="46" height="28" rx="2" opacity="0.4" />
  <rect x="414" y="599.5" width="64" height="28" rx="2" fill="none" class="edge" stroke-width="1" />
  <text class="mono dim" x="446.0" y="617.5" font-size="10" text-anchor="middle" xml:space="preserve">manifest</text>
  <rect x="478" y="599.5" width="44" height="28" rx="2" fill="none" class="edge" stroke-width="1" />
  <text class="mono dim" x="500.0" y="617.5" font-size="10" text-anchor="middle" xml:space="preserve">footer</text>
  <text class="dim" x="300.0" y="645.5" font-size="10" text-anchor="middle" xml:space="preserve">blobs — all alike; nothing here knows what they hold</text>
  <line class="accent-s" x1="285.4" y1="334.0" x2="285.4" y2="262" stroke-width="1.2" />
  <path d="M 281.4 268 L 285.4 258 L 289.4 268 Z" class="accent" />
  <text class="mono accent" x="297.4" y="258.0" font-size="10" xml:space="preserve">names a profile</text>
  <line class="accent-s" x1="389.7" y1="427.5" x2="389.7" y2="565.5" stroke-width="1.2" />
  <path d="M 385.7 559.5 L 389.7 569.5 L 393.7 559.5 Z" class="accent" />
  <text class="mono accent" x="401.7" y="551.5" font-size="10" xml:space="preserve">names a byte range</text>
</svg>
